<svg id="Ebene_1" data-name="Ebene 1" xmlns="http://www.w3.org/2000/svg" viewBox="0 0 252.74 265.7"><defs><style>.cls-1{fill:#616160;}</style></defs><path class="cls-1" d="M31.78,204.75c10.77-21.4,39.19-47,63.69-55.41,5.29-1.83,22.25,9.74,43.75,10.14,27.71.5,37-10.84,43.09-10.33,20.73,1.72,54.9,36.34,59.46,43.86,0,0,18.2,24.51,24.84,63.44a12.18,12.18,0,0,1-.68,7.1c-2,4.55-5.57,8.36-15,8.79-8.36.39-63.06.45-78.59.24-2,0-113.2-.42-136.17-.25,0,0-15.61,1.84-20.11-6.25C10.12,255.36,18.43,231.28,31.78,204.75Z" transform="translate(-14.11 -7)"/><circle class="cls-1" cx="126.3" cy="66.5" r="66.5"/></svg>