<svg id="Ebene_1" data-name="Ebene 1" xmlns="http://www.w3.org/2000/svg" viewBox="0 0 1612.47 265.3"><defs><style>.cls-1{fill:#616160;}</style></defs><rect class="cls-1" x="154.89" y="123.02" width="129.42" height="31.98" transform="translate(-120.45 188.89) rotate(-45)"/><rect class="cls-1" x="146.4" y="112.06" width="33.84" height="166.99" rx="2.54" transform="translate(-176.91 165.65) rotate(-45)"/><rect class="cls-1" x="122.6" y="164.49" width="27.52" height="116.03" rx="2.07" transform="translate(-203.86 154.49) rotate(-45)"/><rect class="cls-1" x="257.73" y="0.47" width="33.84" height="166.99" rx="2.54" transform="translate(-65.39 211.69) rotate(-45)"/><rect class="cls-1" x="287.84" y="-1.01" width="27.52" height="116.03" rx="2.07" transform="translate(-38.44 222.85) rotate(-45)"/><path class="cls-1" d="M432.38,157.94c0-51.58,33.34-81.94,75.1-81.94a65.87,65.87,0,0,1,48.22,20L539.28,116c-7.83-7.46-16.7-13.15-30.8-13.15-26.3,0-44.36,20.5-44.36,54.15,0,34.31,15.77,54.77,46.42,54.77,7.72,0,15.48-2.14,20-6V174.67H502.46V149.35h55.68v70.41c-10.6,10.56-29.1,18.76-50.74,18.76C464.76,238.52,432.38,210.19,432.38,157.94Z" transform="translate(-86.47 -7.11)"/><path class="cls-1" d="M618.44,178.32,571.25,78.88h33.07l15.81,38.42c4.43,11.68,8.72,22.56,13.46,34.58h1c4.75-12,9.49-22.9,13.94-34.58L664.3,78.88h32.26l-47.19,99.44v57.32H618.44Z" transform="translate(-86.47 -7.11)"/><path class="cls-1" d="M709.57,78.88H744l26.78,73.76c3.32,9.68,6.32,20,9.64,30h1c3.32-10,6.17-20.35,9.49-30L817,78.88h34.39V235.64H823.08V169.73c0-14.81,2.48-36.46,3.95-51.25h-1l-12.74,36.71L789,221.36H771.24l-24.38-66.17-12.48-36.71h-1c1.47,14.79,3.94,36.44,3.94,51.25v65.91H709.57Z" transform="translate(-86.47 -7.11)"/><path class="cls-1" d="M969.31,104.87H924.92v-26h119.71v26h-44.39V235.64H969.31Z" transform="translate(-86.47 -7.11)"/><path class="cls-1" d="M1057.13,117.25h25.17l2.29,20.94h.81c8.52-15.58,21.22-23.82,33.64-23.82,6.34,0,10.19.82,13.7,2.4l-5.24,26.65a43.17,43.17,0,0,0-12.41-1.92c-9.23,0-20.38,6.17-27.18,23.42v70.72h-30.78Z" transform="translate(-86.47 -7.11)"/><path class="cls-1" d="M1136.6,203.4c0-25.18,20.53-38.51,68.39-43.61-.52-11.74-5.65-20.76-20.35-20.76-11,0-21.61,4.84-32.47,11.26L1141,129.92c13.84-8.6,30.68-15.55,49.4-15.55,29.87,0,45.34,17.84,45.34,52.17v69.1H1210.6l-2.29-12.71h-.81c-10.34,8.94-22.09,15.59-35.79,15.59C1150.63,238.52,1136.6,223.75,1136.6,203.4Zm68.39-.58V178.65c-29.15,3.77-38.79,11.64-38.79,22.35,0,9.3,6.35,13.53,15.62,13.53C1190.76,214.53,1197.26,210.13,1205,202.82Z" transform="translate(-86.47 -7.11)"/><path class="cls-1" d="M1260.2,176.52c0-39.4,28.32-62.15,60.34-62.15a50.91,50.91,0,0,1,34.59,13.08l-14.76,19.89c-6-5.21-11.49-8-18.17-8-18.18,0-30.4,14.78-30.4,37.16s12.3,37,29.4,37c8.64,0,16.69-4.25,23.19-9.6l12.3,20.22a58.77,58.77,0,0,1-38.81,14.37C1285.27,238.52,1260.2,215.77,1260.2,176.52Z" transform="translate(-86.47 -7.11)"/><path class="cls-1" d="M1379,66.66h30.12v102h.81l41.26-51.38h33.55l-41,48.45,44.68,69.94h-33.4l-28.88-49.23L1409.11,206v29.69H1379Z" transform="translate(-86.47 -7.11)"/><path class="cls-1" d="M1493.26,176.52c0-38.44,27-62.15,55.09-62.15,32.71,0,49.51,23.71,49.51,56.46a74.87,74.87,0,0,1-1.31,14.33h-73.36c2.66,19.43,15.44,29.7,33.17,29.7,9.64,0,18.06-3,26.7-8.24l10.33,18.86c-11.63,7.94-26.54,13-41.17,13C1519.1,238.52,1493.26,215.62,1493.26,176.52Zm78.14-12c0-16.08-7.1-26.46-22.39-26.46-12.67,0-23.75,9.13-26.15,26.46Z" transform="translate(-86.47 -7.11)"/><path class="cls-1" d="M1623.33,117.25h25.17l2.29,20.94h.81c8.51-15.58,21.21-23.82,33.64-23.82,6.33,0,10.19.82,13.69,2.4l-5.24,26.65a43.16,43.16,0,0,0-12.4-1.92c-9.23,0-20.39,6.17-27.18,23.42v70.72h-30.78Z" transform="translate(-86.47 -7.11)"/></svg>